<?xml version="1.0" standalone="no"?>
<!DOCTYPE svg PUBLIC "-//W3C//DTD SVG 1.1//EN"
  "http://www.w3.org/Graphics/SVG/1.1/DTD/svg11.dtd">
<svg width="176.9566650390625mm" height="116.49999999999997mm" viewBox="-90 -60.499999999999986 176.9566650390625 116.49999999999997" xmlns="http://www.w3.org/2000/svg" version="1.1">
	<title>svgOutput</title>
	<desc>made with tinkercad</desc>
<path d="M 26 -25.999999999999993 L 23 -25.999999999999993 L 23 -9.999999999999998 L 23 -8.999999999999998 L 6 -8.999999999999998 L 6 -6.999999999999998 L 6 -5.999999999999998 L -4 -5.999999999999998 L -4 -6.999999999999998 L -4 -8.999999999999998 L -21 -8.999999999999998 L -21 -9.999999999999998 L -21 -25.999999999999993 L -24 -25.999999999999993 L -24 -35.99999999999999 L -21 -35.99999999999999 L -21 -52.999999999999986 L -4 -52.999999999999986 L -4 -53.999999999999986 L -4 -55.999999999999986 L 6 -55.999999999999986 L 6 -53.999999999999986 L 6 -52.999999999999986 L 23 -52.999999999999986 L 23 -35.99999999999999 L 26 -35.99999999999999 L 26 -25.999999999999993 M 35 -53.999999999999986 L 38.00299835205078 -53.999999999999986 L 55 -53.999999999999986 L 55 -56.999999999999986 L 65 -56.999999999999986 L 65 -53.999999999999986 L 81.99800109863281 -53.999999999999986 L 85 -53.999999999999986 L 85 -37.002998352050774 L 81.99800109863281 -37.002998352050774 L 81.99800109863281 -26.997999191284173 L 85 -26.997999191284173 L 85 -9.999999999999998 L 81.99800109863281 -9.999999999999998 L 65 -9.999999999999998 L 65 -6.999999999999998 L 55 -6.999999999999998 L 55 -8.999999999999998 L 55 -9.999999999999998 L 38.00299835205078 -9.999999999999998 L 35 -9.999999999999998 L 35 -26.997999191284173 L 38.00299835205078 -26.997999191284173 L 38.00299835205078 -37.002998352050774 L 35 -37.002998352050774 L 35 -53.999999999999986 M 4 3.999999999999999 L 4 4.999999999999999 L 4 6.999999999999998 L 21 6.999999999999998 L 21 7.999999999999998 L 21 23.999999999999993 L 24 23.999999999999993 L 24 33.99999999999999 L 21 33.99999999999999 L 21 50.999999999999986 L 4 50.999999999999986 L 4 51.999999999999986 L 4 53.999999999999986 L -6 53.999999999999986 L -6 51.999999999999986 L -6 50.999999999999986 L -23 50.999999999999986 L -23 33.99999999999999 L -26 33.99999999999999 L -26 23.999999999999993 L -23 23.999999999999993 L -23 7.999999999999998 L -23 6.999999999999998 L -6 6.999999999999998 L -6 4.999999999999999 L -6 3.999999999999999 L 4 3.999999999999999 M 85.9566650390625 24.997999191284173 L 82.95378875732422 24.997999191284173 L 82.95378875732422 35.002998352050774 L 85.9566650390625 35.002998352050774 L 85.9566650390625 51.999999999999986 L 82.95378875732422 51.999999999999986 L 65.95362091064453 51.999999999999986 L 65.95362091064453 54.999999999999986 L 57.32329177856445 54.999999999999986 L 57.32329177856445 51.999999999999986 L 57.31512451171875 51.999999999999986 L 57.31512451171875 7.999999999999998 L 57.32329177856445 7.999999999999998 L 57.32329177856445 4.999999999999999 L 65.95362091064453 4.999999999999999 L 65.95362091064453 7.999999999999998 L 82.95378875732422 7.999999999999998 L 85.9566650390625 7.999999999999998 L 85.9566650390625 24.997999191284173 M -89 4.999999999999999 L -86 4.999999999999999 L -85.99800109863281 4.999999999999999 L -69.00299835205078 4.999999999999999 L -69.00299835205078 8.001999855041502 L -58.99800109863281 8.001999855041502 L -58.99800109863281 4.999999999999999 L -42.00299835205078 4.999999999999999 L -39 4.999999999999999 L -39 24.997999191284173 L -42.00299835205078 24.997999191284173 L -42.00299835205078 35.002998352050774 L -39 35.002998352050774 L -39 54.999999999999986 L -42.00299835205078 54.999999999999986 L -58.99800109863281 54.999999999999986 L -58.99800109863281 51.9980010986328 L -69.00299835205078 51.9980010986328 L -69.00299835205078 54.999999999999986 L -85.99800109863281 54.999999999999986 L -86 54.999999999999986 L -89 54.999999999999986 L -89 35.002998352050774 L -86 35.002998352050774 L -85.99800109863281 35.002998352050774 L -85.99800109863281 24.997999191284173 L -86 24.997999191284173 L -89 24.997999191284173 L -89 4.999999999999999 M -36 -9.999999999999998 L -36 -9.499999999999998 L -39 -9.499999999999998 L -55.99800109863281 -9.499999999999998 L -55.99800109863281 -12.50300025939941 L -66.00299835205078 -12.50300025939941 L -66.00299835205078 -9.499999999999998 L -86 -9.499999999999998 L -86 -12.50300025939941 L -86 -29.497999191284173 L -82.99800109863281 -29.497999191284173 L -82.99800109863281 -39.502998352050774 L -86 -39.502998352050774 L -86 -56.4980010986328 L -86 -59.499999999999986 L -66.00299835205078 -59.499999999999986 L -66.00299835205078 -56.4980010986328 L -55.99800109863281 -56.4980010986328 L -55.99800109863281 -59.499999999999986 L -36 -59.499999999999986 L -36 -56.999999999999986 L -36 -56.4980010986328 L -36 -53.999999999999986 L -36 -39.502998352050774 L -39.00299835205078 -39.502998352050774 L -39.00299835205078 -29.497999191284173 L -36 -29.497999191284173 L -36 -12.50300025939941 L -36 -9.999999999999998 z" fill="none" stroke="rgb(255,0,0)" stroke-width="0.001mm" />
</svg>